<svg width="30" height="22" viewBox="0 0 30 22" fill="none" xmlns="http://www.w3.org/2000/svg">
<path d="M3 22C2.175 22 1.46875 21.7307 0.88125 21.1922C0.29375 20.6536 0 20.0063 0 19.25V2.75C0 1.99375 0.29375 1.34635 0.88125 0.807813C1.46875 0.269271 2.175 0 3 0H27C27.825 0 28.5313 0.269271 29.1188 0.807813C29.7063 1.34635 30 1.99375 30 2.75V19.25C30 20.0063 29.7063 20.6536 29.1188 21.1922C28.5313 21.7307 27.825 22 27 22H3ZM15 12.375L3 5.5V19.25H27V5.5L15 12.375ZM15 9.625L27 2.75H3L15 9.625ZM3 5.5V2.75V19.25V5.5Z" fill="black" fill-opacity="0.6"/>
</svg>
