<svg width="30" height="30" viewBox="0 0 30 30" fill="none" xmlns="http://www.w3.org/2000/svg">
<path d="M17.4046 22.5208C15.0541 22.3824 14.0712 21.4484 12.2336 20.5489C11.4216 24.0083 10.4387 27.364 8.17376 29.6472C7.49 30.3045 6.16521 29.9931 6.12247 29.1283C5.78059 23.5932 8.13102 19.1998 9.28487 14.5987C7.10538 11.589 9.54129 5.56964 14.1994 7.05719C19.9259 8.89069 9.24214 18.1965 16.4216 19.3727C23.9003 20.5489 26.9772 8.85609 22.3191 5.05073C15.6097 -0.449742 2.83186 4.91236 4.41307 12.7998C4.71221 14.2874 6.25068 14.9793 6.07974 16.4668C5.95153 17.4009 4.79768 17.9198 3.77204 17.5392C0.823312 16.4322 -0.116862 13.976 0.0113431 10.828C0.267754 4.87776 6.63529 0.691866 13.0028 0.103765C21.0798 -0.622713 28.6439 2.49076 29.6695 8.64853C30.8661 15.5328 26.0371 23.0397 17.4046 22.5208Z" fill="black" fill-opacity="0.6"/>
</svg>
